PathFileType	4	(X/Y/Z)	C:\Users\WrightLab\Desktop\Jo\P1.2Trial16.trc
DataRate	CameraRate	NumFrames	NumMarkers	Units	OrigDataRate	OrigDataStartFrame	OrigNumFrames
100.00	100.00	       32	19	mm	100.00	348	       463
Frame#	Time	Headset_Front			Headset_Back			Headset_Left			Headset_Right			Left_Shoulder			Right_Shoulder			Sternum			C7			Left Elbow			Right Elbow			Left Wrist			Right Wrist			Left ASIS			Right ASIS			S2			Left Knee			Right Knee			Left Ankle			Right Ankle			
		X1	Y1	Z1	X2	Y2	Z2	X3	Y3	Z3	X4	Y4	Z4	X5	Y5	Z5	X6	Y6	Z6	X7	Y7	Z7	X8	Y8	Z8	X9	Y9	Z9	X10	Y10	Z10	X11	Y11	Z11	X12	Y12	Z12	X13	Y13	Z13	X14	Y14	Z14	X15	Y15	Z15	X16	Y16	Z16	X17	Y17	Z17	X18	Y18	Z18	X19	Y19	Z19	

348	3.470							-152.41365	1504.74072	2150.07739				-27.01006	1293.89136	2227.56445				-256.96802	1236.29468	2126.21753										52.82633	821.23926	2391.01733	-449.76886	855.81818	2017.45459	-196.10606	931.05170	2263.38989				6.76799	928.64850	2014.53308	-261.72293	535.58459	2341.38696				-267.21893	250.76552	2502.79956				
349	3.480							-158.98209	1503.70325	2157.00366				-36.02788	1293.17603	2236.80200				-262.95700	1234.71375	2129.78784										40.25910	820.08539	2400.71875	-450.74698	852.05768	2016.64954	-204.65195	930.04211	2269.74780				4.59038	927.40338	2025.88269	-271.76309	535.62207	2346.60254				-285.70724	254.71140	2510.25366				
350	3.490							-165.44600	1502.79187	2163.61523				-44.71478	1292.61011	2247.15576				-269.19894	1233.73364	2134.26245										27.01303	818.01178	2410.38013	-451.14612	846.98743	2015.89648	-213.23885	928.95367	2276.05078				1.75326	927.02319	2036.18579	-283.15756	534.91962	2350.74512				-302.10394	257.04309	2514.07349				
351	3.500							-171.89148	1501.60437	2169.50903				-53.63723	1291.39099	2256.04541				-275.07941	1233.80139	2141.32227										13.51444	815.71094	2419.32568	-451.82449	842.23779	2010.87158	-221.67902	927.77594	2281.75903				-0.91373	926.01709	2047.57227	-293.68814	534.20117	2357.09473				-317.35144	258.90994	2519.27930				
352	3.510							-178.83022	1500.68628	2176.83496				-62.78558	1290.67297	2266.23779				-280.47955	1231.10278	2144.49658										-0.64305	814.35315	2429.54980	-452.09399	837.08221	2008.01965	-230.55392	926.67346	2288.19116				-3.27150	925.10663	2060.96606	-304.96286	532.22687	2360.76807				-331.98987	260.77454	2522.81641				
353	3.520							-185.83275	1499.44043	2182.47144				-72.10745	1290.16541	2276.27393				-286.36740	1229.74097	2148.51807										-14.41166	813.64844	2440.57910	-451.80948	830.94873	2005.04114	-239.55005	925.61493	2294.52319				-5.52940	924.44202	2073.52710	-315.67267	532.01379	2365.93262				-346.24542	260.55084	2526.15723				
354	3.530							-192.68364	1498.35669	2188.84863				-81.53674	1289.19019	2285.81494				-292.60388	1228.01318	2153.48584										-29.52775	811.97797	2450.19604	-451.07202	824.29633	2002.22864	-248.43065	924.47626	2300.40405				-8.48161	923.16644	2085.23145	-327.69046	531.04059	2370.42578				-359.91907	258.96231	2529.24927				
355	3.540							-200.54207	1497.73230	2196.08618				-91.07100	1288.96594	2296.36157				-298.73035	1226.34778	2158.20996										-44.37716	810.80157	2461.16040	-450.35309	817.23059	1997.04480	-257.61551	923.14410	2306.60864				-11.19282	921.68518	2095.87183	-338.39154	529.40869	2374.72534				-372.32968	256.59381	2530.89966				
356	3.550							-208.17506	1497.34473	2202.06494				-101.47795	1288.18665	2306.37378				-304.99936	1224.93347	2162.57666										-60.27373	809.36877	2471.66748	-448.65323	810.79401	1993.91736	-266.82260	922.01337	2312.44189				-13.79604	920.87262	2108.84717	-349.57785	527.19324	2378.58350				-383.86917	253.69688	2533.31177				
357	3.560							-216.19592	1496.48718	2208.39941				-111.70332	1287.01648	2315.95020				-311.61462	1223.35254	2167.47778										-75.69350	808.36523	2482.72534	-446.74347	804.66174	1989.30200	-276.40686	920.76343	2317.92139				-16.70709	920.57330	2121.30469	-361.30331	525.02148	2381.73486				-394.09106	249.74081	2535.35474				
358	3.570							-224.44785	1496.19043	2215.03638				-122.76031	1286.65417	2326.82520				-317.82584	1222.12805	2172.46680										-91.84918	806.66748	2492.37524	-444.77792	797.95227	1983.82788	-285.89737	918.71313	2322.68921				-20.20332	920.83331	2132.37793	-372.32724	524.38428	2386.35425				-403.87231	245.54846	2537.18018				
359	3.580							-233.03104	1495.99866	2221.59863				-133.77921	1286.07410	2337.08301				-324.33350	1220.67969	2178.07861										-108.21898	805.44574	2502.78540	-442.01566	792.07965	1980.30872	-295.85117	918.03784	2328.36377				-23.81146	920.49170	2144.20386	-382.37659	522.20270	2389.06152										
360	3.590							-241.59833	1495.60803	2227.49341				-145.84599	1285.83643	2348.10547				-331.20938	1219.40125	2183.14111										-124.45885	804.63861	2513.40820	-439.45978	785.69244	1975.91846	-305.77356	916.47302	2333.38330				-27.59820	920.83844	2156.28857	-393.09201	519.19629	2391.56665										
361	3.600							-250.38026	1494.98706	2233.56201				-157.85518	1285.17371	2358.26343				-337.73450	1218.38342	2187.57104										-140.85397	803.70081	2523.05298	-436.04489	781.45990	1970.88623	-316.61407	915.25006	2338.62671				-31.92523	920.31738	2168.16650	-403.04980	517.73206	2396.36133										
362	3.610							-259.86014	1495.07703	2239.94580				-170.74573	1284.96899	2369.00024				-344.65942	1217.66370	2192.48584										-158.14305	802.91736	2533.78857	-432.83487	777.55835	1966.09998	-326.79266	914.46777	2343.96387				-36.55754	920.37744	2182.09033	-412.32687	513.03088	2397.72192										
363	3.620							-269.51248	1495.57104	2246.61816				-183.86250	1284.73474	2379.81128				-351.52777	1216.43152	2197.55005										-175.17822	802.33624	2543.34497	-429.22845	774.44183	1960.80908	-337.64532	912.81604	2347.67285				-41.83187	919.93298	2195.57544	-421.71326	510.93698	2402.05151										
364	3.630													-197.67079	1284.42249	2390.23413				-358.46390	1215.35461	2202.80591										-192.50905	802.02100	2553.06348	-425.02588	772.57202	1955.88953	-349.01270	912.38354	2354.06909				-47.45384	920.17523	2209.38525	-430.51935	506.21851	2403.06494										
365	3.640													-211.90845	1284.32727	2400.75562				-365.27536	1214.82532	2206.20581										-209.77133	801.16919	2561.92261	-420.62207	770.73834	1951.92285	-359.66031	911.03461	2357.96167				-53.72971	920.04614	2223.98120	-438.97610	502.87292	2405.75073										
366	3.650													-226.72639	1284.38098	2411.17700				-372.18790	1214.02356	2211.12671										-227.62682	800.97626	2571.71753	-416.02328	769.99115	1948.81836	-370.55176	909.86023	2362.08228				-60.54938	920.14801	2238.10864	-447.34549	499.33530	2408.16870										
367	3.660													-241.54228	1284.50281	2420.92944																-245.42291	800.86230	2581.20923	-410.81171	769.09198	1943.82849	-381.31509	909.41864	2367.68701				-67.34704	920.32086	2252.94067	-455.60449	495.30832	2409.98560										
368	3.670													-257.01532	1285.07654	2430.70947																-263.26971	800.44897	2589.79956	-405.18570	768.16547	1941.59058							-75.44892	921.16229	2267.80762	-462.35394	493.36511	2411.27832										
369	3.680																															-281.27423	801.01801	2598.43359	-399.05496	768.73853	1938.07996							-83.47944	922.74030	2281.73193	-468.98624	492.94080	2413.54443										
370	3.690																															-299.62451	801.70630	2607.05127	-392.30576	768.71051	1937.14490							-91.91004	924.97736	2295.71289	-474.92459	494.29379	2415.46655										
371	3.700																															-318.33560	803.72095	2615.31885	-384.25348	770.81628	1933.63501							-101.69209	928.04205	2309.68555	-482.82858	496.20221	2421.34912										
372	3.710																															-337.22348	806.10577	2623.31396	-376.15271	774.09515	1930.91931							-111.62041	932.21869	2322.24829	-491.29105	499.17844	2423.36230										
373	3.720																																		-366.57126	775.68164	1931.76697							-120.60654	935.87170	2335.56421	-498.79810	503.25452	2424.47046										
374	3.730																																		-356.59375	780.64917	1928.19275										-506.80325	507.13046	2428.17017										
375	3.740																																		-346.04160	783.37396	1932.46179										-515.03204	510.52225	2431.80664										
376	3.750																																		-335.14713	786.97113	1933.24609																						
377	3.760																																		-324.18192	791.30383	1935.61328																						
378	3.770																																		-312.84485	794.20044	1940.06641																						
379	3.780																																		-301.83957	797.06653	1946.65332																						
